<svg xmlns="http://www.w3.org/2000/svg" style="display: none;">
  <symbol id="delete" viewBox="0 0 20 20">
    <path fill="currentColor" d="M18 5v13a2 2 0 0 1-2 2H4a2 2 0 0 1-2-2V5H0V3h20v2h-2ZM4 5v13h12V5H4ZM5 0h10v2H5V0Z"/>
  </symbol>

  <symbol id="icon-chevron-up" viewBox="0 0 11 6">
    <path fill="currentColor" d="M10.63 5.64a.37.37 0 0 1-.53 0L5.37.91.63 5.64a.37.37 0 0 1-.52-.53L5.11.11a.37.37 0 0 1 .52 0l5 5a.37.37 0 0 1 0 .53Z"/>
  </symbol>

  <symbol id="icon-chevron-down" viewBox="0 0 11 6">
    <path fill="currentColor" d="M10.63.63L5.63 5.63a.37.37 0 0 1-.53 0L.1 0.63A.37.37 0 0 1 .63.1l4.74 4.73L10.1.1a.37.37 0 0 1 .53.53Z"/>
  </symbol>
</svg>